<?xml version="1.0" encoding="UTF-8" standalone="no"?>
<!-- Created with Inkscape (http://www.inkscape.org/) -->

<svg
   xmlns:dc="http://purl.org/dc/elements/1.1/"
   xmlns:cc="http://creativecommons.org/ns#"
   xmlns:rdf="http://www.w3.org/1999/02/22-rdf-syntax-ns#"
   xmlns:svg="http://www.w3.org/2000/svg"
   xmlns="http://www.w3.org/2000/svg"
   xmlns:sodipodi="http://sodipodi.sourceforge.net/DTD/sodipodi-0.dtd"
   xmlns:inkscape="http://www.inkscape.org/namespaces/inkscape"
   width="139.7mm"
   height="139.7mm"
   viewBox="0 0 494.99999 494.99999"
   id="svg2"
   version="1.1"
   inkscape:version="0.91 r13725"
   sodipodi:docname="icon.svg"
   inkscape:export-filename="G:\Downloads\mozilla\cleanHomescreenAddon\icon\512.png"
   inkscape:export-xdpi="93.089996"
   inkscape:export-ydpi="93.089996">
  <defs
     id="defs4" />
  <sodipodi:namedview
     id="base"
     pagecolor="#ffffff"
     bordercolor="#666666"
     borderopacity="1.0"
     inkscape:pageopacity="0.0"
     inkscape:pageshadow="2"
     inkscape:zoom="0.70710678"
     inkscape:cx="255.35478"
     inkscape:cy="356.42229"
     inkscape:document-units="px"
     inkscape:current-layer="layer1"
     showgrid="false"
     fit-margin-top="0"
     fit-margin-left="0"
     fit-margin-right="0"
     fit-margin-bottom="0"
     inkscape:window-width="1920"
     inkscape:window-height="1018"
     inkscape:window-x="-8"
     inkscape:window-y="-8"
     inkscape:window-maximized="1" />
  <metadata
     id="metadata7">
    <rdf:RDF>
      <cc:Work
         rdf:about="">
        <dc:format>image/svg+xml</dc:format>
        <dc:type
           rdf:resource="http://purl.org/dc/dcmitype/StillImage" />
        <dc:title />
      </cc:Work>
    </rdf:RDF>
  </metadata>
  <g
     inkscape:label="Ebene 1"
     inkscape:groupmode="layer"
     id="layer1"
     transform="translate(522.84437,-489.96437)">
    <path
       style="fill-opacity:0.2"
       inkscape:connector-curvature="0"
       d="m -27.84437,737.46437 c 0,136.69 -110.81,247.5 -247.5,247.5 -136.69,0 -247.5,-110.81 -247.5,-247.5 0,-136.69 110.81,-247.5 247.5,-247.5 136.69,0 247.5,110.81 247.5,247.5 z"
       id="path4162" />
    <path
       style="fill:#ffffff;fill-opacity:0.8"
       inkscape:connector-curvature="0"
       d="m -397.58576,652.94045 c -11.32335,0 -20.50492,9.18074 -20.50492,20.48019 0,11.33407 9.18322,20.50574 20.48183,20.50574 11.32335,0 20.50492,-9.1593 20.50492,-20.48266 0,-11.32169 -9.18157,-20.50244 -20.481,-20.50244 z m 69.03865,0 c -11.32171,0 -20.50492,9.18074 -20.50492,20.48019 0,11.33407 9.18321,20.50574 20.481,20.50574 11.32336,0 20.50492,-9.1593 20.50492,-20.48266 0,-11.32169 -9.18156,-20.50244 -20.481,-20.50244 z m 69.03865,0 c -11.31016,0 -20.50493,9.18074 -20.50493,20.48019 0,11.33407 9.20549,20.50574 20.48183,20.50574 11.32336,0 20.5041,-9.1593 20.5041,-20.48266 0,-11.32169 -9.18074,-20.50244 -20.481,-20.50244 z m -138.0773,57.53221 c -11.32335,0 -20.50492,9.18157 -20.50492,20.48183 0,11.33325 9.18322,20.48018 20.48183,20.48018 11.32335,0 20.50492,-9.1494 20.50492,-20.48266 0,-11.29861 -9.18157,-20.481 -20.481,-20.481 z m 69.03865,0 c -11.32171,0 -20.50492,9.18157 -20.50492,20.48183 0,11.33325 9.18321,20.48018 20.481,20.48018 11.32336,0 20.50492,-9.1494 20.50492,-20.48266 0,-11.29861 -9.18156,-20.481 -20.481,-20.481 z m 69.03865,0 c -11.31016,0 -20.50493,9.18157 -20.50493,20.48183 0,11.33325 9.20549,20.48018 20.48183,20.48018 11.32336,0 20.5041,-9.1494 20.5041,-20.48266 0,-11.29861 -9.18074,-20.481 -20.481,-20.481 z m -138.0773,57.53221 c -11.32335,0 -20.50492,9.18156 -20.50492,20.48182 0,11.29861 9.18322,20.48101 20.48183,20.48101 11.32335,0 20.50492,-9.1593 20.50492,-20.48266 0,-11.32088 -9.18157,-20.48017 -20.481,-20.48017 z m 69.03865,0 c -11.32171,0 -20.50492,9.18156 -20.50492,20.48182 0,11.29861 9.18321,20.48101 20.481,20.48101 11.32336,0 20.50492,-9.1593 20.50492,-20.48266 0,-11.32088 -9.18156,-20.48017 -20.481,-20.48017 z m 69.03865,0 c -11.31016,0 -20.50493,9.18156 -20.50493,20.48182 0,11.29861 9.20549,20.48101 20.48183,20.48101 11.32336,0 20.5041,-9.1593 20.5041,-20.48266 0,-11.32088 -9.18074,-20.48017 -20.481,-20.48017 z m -138.0773,57.5322 c -11.32335,0 -20.50492,9.18075 -20.50492,20.48018 0,11.30026 9.18322,20.48349 20.48183,20.48349 11.32335,0 20.50492,-9.16013 20.50492,-20.48266 0,-11.32088 -9.18157,-20.48018 -20.481,-20.48018 z m 69.03865,0 c -11.32171,0 -20.50492,9.18075 -20.50492,20.48018 0,11.30026 9.18321,20.48349 20.481,20.48349 11.32336,0 20.50492,-9.16013 20.50492,-20.48266 0,-11.32088 -9.18156,-20.48018 -20.481,-20.48018 z m 69.03865,0 c -11.31016,0 -20.50493,9.18075 -20.50493,20.48018 0,11.30026 9.20549,20.48349 20.48183,20.48349 11.32336,0 20.5041,-9.16013 20.5041,-20.48266 0,-11.32088 -9.18074,-20.48018 -20.481,-20.48018 z m 21.02202,-220.00543 -177.27936,0 c -4.06173,0 -7.36472,5.17922 -7.36472,11.56417 0,6.38578 3.30299,11.58727 7.36472,11.58727 l 177.28101,0 c 4.0741,0 7.36471,-5.17922 7.36471,-11.58727 0,-6.38578 -3.30299,-11.56417 -7.36471,-11.56417 z"
       id="path4164" />
    <rect
       style="opacity:1;fill:#f3f3f3;fill-opacity:0.83921569;stroke:none;stroke-width:0.35433072;stroke-miterlimit:4;stroke-dasharray:none;stroke-dashoffset:0;stroke-opacity:1"
       id="rect4195-8"
       width="58.680519"
       height="74.18103"
       x="-133.57657"
       y="655.7207"
       rx="4.7450504"
       ry="4.7450504" />
    <rect
       style="opacity:1;fill:#f3f3f3;fill-opacity:0.83921569;stroke:none;stroke-width:0.35433072;stroke-miterlimit:4;stroke-dasharray:none;stroke-dashoffset:0;stroke-opacity:1"
       id="rect4195-8-1"
       width="58.680519"
       height="74.18103"
       x="-207.7576"
       y="655.7207"
       rx="4.7450504"
       ry="4.7450504" />
    <rect
       style="opacity:1;fill:#f3f3f3;fill-opacity:0.83921569;stroke:none;stroke-width:0.35433072;stroke-miterlimit:4;stroke-dasharray:none;stroke-dashoffset:0;stroke-opacity:1"
       id="rect4195-8-6"
       width="58.680519"
       height="74.18103"
       x="-133.57657"
       y="747.61658"
       rx="4.7450504"
       ry="4.7450504" />
    <rect
       style="opacity:1;fill:#f3f3f3;fill-opacity:0.83921569;stroke:none;stroke-width:0.35433072;stroke-miterlimit:4;stroke-dasharray:none;stroke-dashoffset:0;stroke-opacity:1"
       id="rect4195-8-1-1"
       width="58.680519"
       height="74.18103"
       x="-207.7576"
       y="747.61658"
       rx="4.7450504"
       ry="4.7450504" />
    <path
       style="fill:#0090ff;fill-opacity:1"
       d="m -67.876235,784.29059 c 0.610874,-1.74862 1.242657,-6.02824 1.403996,-9.51019 0.558183,-12.04846 4.025447,-34.85301 9.294368,-61.13029 1.13739,-5.67242 1.425279,-9.22266 0.852851,-10.51725 -0.708494,-1.60234 -7.928485,-5.08593 -40.088782,-19.34255 -29.888838,-13.24969 -39.601728,-17.2215 -40.808988,-16.68771 -0.8714,0.38531 -3.84821,4.27887 -6.61516,8.65239 -7.92965,12.53386 -22.91215,30.66994 -37.89326,45.86925 -7.47963,7.58857 -7.18779,7.11322 -6.82513,11.11641 0.55709,6.14953 6.64803,15.29009 13.87283,20.81868 23.1428,17.7094 54.084,30.54026 86.577317,35.9024 10.355368,1.70888 10.756831,1.70572 14.880884,-0.11779 3.888754,-1.71945 4.330019,-2.13633 5.349074,-5.05335 z m -23.325084,-10.62213 c -0.684825,-0.24029 1.277615,-14.47775 2.767679,-20.07956 1.193746,-4.48791 1.257314,-6.11959 0.320917,-8.23736 -0.991246,-2.2418 -1.458884,-2.5908 -3.094395,-2.30935 -4.162039,0.7162 -6.143686,3.1253 -11.886322,14.45022 -3.11471,6.1425 -5.99333,11.29741 -6.39695,11.45536 -0.40366,0.15781 -3.32496,-0.59716 -6.4919,-1.67802 -6.96843,-2.37833 -6.89557,-1.99482 -2.82119,-14.85106 5.40055,-17.04091 5.24127,-16.24535 3.78641,-18.91159 -1.31007,-2.40091 -1.37487,-2.41709 -4.73121,-1.1828 -3.09356,1.13766 -3.69093,1.74247 -6.57055,6.65254 -4.96217,8.46105 -12.25458,18.73335 -13.01174,18.32872 -0.19932,-0.10651 -2.70482,-1.49195 -5.56777,-3.07876 l -5.20539,-2.88509 3.97327,-11.04498 c 4.73626,-13.16595 5.51147,-16.9227 4.01773,-19.47028 -0.98197,-1.67477 -1.39349,-1.75637 -4.05561,-0.80412 -2.3763,0.85 -3.49013,1.85538 -5.62719,5.07924 -2.80235,4.22746 -9.1167,12.18691 -11.63984,14.67241 -1.39753,1.37669 -1.71075,1.29373 -5.1425,-1.36209 -2.36462,-1.82995 -3.51144,-3.15792 -3.24948,-3.7627 0.22266,-0.51407 6.42143,-7.95149 13.77504,-16.52761 7.3536,-8.57611 16.32911,-19.3284 19.94556,-23.89397 l 6.57536,-8.30107 4.23996,1.7231 c 2.332,0.94769 15.55914,6.62065 29.393672,12.60656 l 25.153701,10.88344 -1.691487,9.76001 c -2.260665,13.0442 -6.244835,41.02679 -6.860288,48.18259 l -0.494668,5.75193 -4.523557,-0.51905 c -2.487942,-0.28545 -4.687227,-0.57639 -4.887262,-0.64666 z m 40.566514,-85.96259 c 2.171746,-10.31492 2.153274,-12.24593 -0.176911,-18.49184 -2.938454,-7.87635 -5.343967,-10.4693 -12.777515,-13.77312 l -6.169615,-2.74206 1.742186,-3.72748 c 0.958205,-2.0501 7.135558,-15.97581 13.727442,-30.94601 8.726882,-19.8187 11.803264,-27.6307 11.315789,-28.73477 -0.36819,-0.8339 -0.443201,-1.84631 -0.166657,-2.24973 0.652827,-0.95235 -0.997668,-4.68513 -2.141435,-4.84309 -0.484498,-0.067 -1.163442,-0.76059 -1.508734,-1.5415 -0.34529,-0.78092 -2.575185,-2.3785 -4.95529,-3.55011 -4.057395,-1.99731 -4.52787,-2.03974 -7.538359,-0.68057 l -3.21094,1.44953 -14.222931,32.3137 c -7.82261,17.77253 -14.438374,32.40897 -14.701715,32.5254 -0.263322,0.11643 -3.224972,-0.99076 -6.581443,-2.46045 -6.550377,-2.86822 -9.690667,-3.17003 -15.453667,-1.48512 -6.52283,1.90698 -10.21803,5.24748 -15.0936,13.64477 -3.17944,5.476 -4.2165,7.99875 -3.81842,9.28863 0.44382,1.43808 7.63007,4.85554 38.244701,18.18749 31.966628,13.9207 38.024143,16.30487 39.842054,15.68133 1.925793,-0.66053 2.296559,-1.46057 3.645002,-7.86513 z"
       id="path4154"
       inkscape:connector-curvature="0" />
  </g>
</svg>
